<svg width="1678" height="338" viewBox="0 0 1678 338" fill="none" xmlns="http://www.w3.org/2000/svg">
<rect width="1678" height="338" fill="#010229" fill-opacity="0.3"/>
<path d="M366.114 107.242V109.352H350.224C346.661 109.352 344.025 109.457 342.314 109.668C340.603 109.879 339.079 110.23 337.743 110.723C336.407 111.215 335.224 112.07 334.193 113.289C333.161 114.508 332.564 116.664 332.4 119.758C332.517 122.758 333.114 124.902 334.193 126.191C335.271 127.48 336.583 128.336 338.13 128.758C339.677 129.18 341.271 129.473 342.911 129.637C344.552 129.801 346.989 129.883 350.224 129.883V119.617H366.114V145H343.614C338.107 145 333.126 144.027 328.673 142.082C324.22 140.113 320.704 137.172 318.126 133.258C315.571 129.344 314.294 124.551 314.294 118.879C314.294 114.895 315.056 111.344 316.579 108.227C318.126 105.086 320.259 102.484 322.978 100.422C325.696 98.3359 328.814 96.7891 332.329 95.7812C335.868 94.75 339.63 94.2344 343.614 94.2344H366.114V96.3438H343.614C339.771 96.3906 336.255 96.8477 333.068 97.7148C329.88 98.582 327.056 99.9766 324.595 101.898C322.134 103.82 320.177 106.188 318.724 109C317.271 111.812 316.497 115.105 316.403 118.879C316.357 124.199 317.552 128.641 319.989 132.203C322.427 135.766 325.708 138.414 329.833 140.148C333.958 141.883 338.552 142.797 343.614 142.891H364.005V121.727H352.333V131.992H350.224C347.036 132.039 344.505 131.957 342.63 131.746C340.755 131.535 338.903 131.184 337.075 130.691C335.247 130.199 333.712 129.109 332.47 127.422C331.228 125.734 330.501 123.18 330.29 119.758C330.548 115.82 331.345 113.184 332.681 111.848C334.017 110.512 335.446 109.539 336.97 108.93C338.493 108.32 340.181 107.91 342.032 107.699C343.907 107.465 346.638 107.312 350.224 107.242H366.114ZM367.144 145V94.2344H400.191C404.269 94.6094 407.538 95.6172 409.999 97.2578C412.46 98.8984 414.136 100.48 415.027 102.004C415.917 103.527 416.55 105.391 416.925 107.594C417.3 109.797 417.054 112.199 416.187 114.801C415.32 117.402 413.831 119.523 411.722 121.164C409.613 122.805 406.589 124.094 402.652 125.031L406.448 129.883H419.527V145H401.597L385.495 128.23V145H367.144ZM369.253 142.891H383.386V126.121H386.796L402.827 142.891H417.417V131.992H405.218L400.542 126.262V123.309C405.37 122.324 408.663 121.094 410.421 119.617C412.202 118.141 413.456 116.336 414.183 114.203C414.933 112.07 415.167 110.031 414.886 108.086C414.628 106.141 414.124 104.535 413.374 103.27C412.648 101.98 411.171 100.586 408.945 99.0859C406.718 97.5859 403.8 96.6719 400.191 96.3438H369.253V142.891ZM384.616 106.012H398.82C399.452 106.012 400.226 106.387 401.14 107.137C402.054 107.863 402.593 109.387 402.757 111.707C402.663 114.121 402.171 115.633 401.28 116.242C400.413 116.852 399.605 117.156 398.855 117.156H384.616V106.012ZM386.796 108.051V115.223H397.659C398.222 115.223 398.843 115.035 399.523 114.66C400.226 114.262 400.601 113.266 400.648 111.672C400.53 110.219 400.109 109.258 399.382 108.789C398.679 108.297 398.093 108.051 397.624 108.051H386.796ZM437.079 94.2344V124.258C436.939 127.68 437.595 130.059 439.048 131.395C440.501 132.73 442.775 133.445 445.868 133.539C448.353 133.492 450.427 132.766 452.091 131.359C453.755 129.953 454.54 127.586 454.447 124.258V94.2344H470.97V124.012C470.9 128.23 470.197 131.605 468.861 134.137C467.548 136.645 465.872 138.742 463.833 140.43C461.818 142.117 459.275 143.43 456.204 144.367C453.158 145.305 449.759 145.82 446.009 145.914C442.892 145.844 439.716 145.422 436.482 144.648C433.271 143.852 430.458 142.609 428.044 140.922C425.654 139.234 423.802 137.066 422.49 134.418C421.2 131.77 420.556 128.312 420.556 124.047V94.2344H437.079ZM422.665 96.3438V124.047C422.9 128.219 423.544 131.348 424.599 133.434C425.654 135.52 427.247 137.359 429.38 138.953C431.513 140.547 434.079 141.73 437.079 142.504C440.079 143.277 443.056 143.711 446.009 143.805C449.525 143.664 452.736 143.137 455.642 142.223C458.548 141.309 460.88 140.09 462.638 138.566C464.396 137.043 465.849 135.238 466.997 133.152C468.146 131.066 468.767 128.02 468.861 124.012V96.3438H456.556V124.258C456.697 127.82 455.923 130.527 454.236 132.379C452.548 134.23 449.759 135.32 445.868 135.648C441.79 135.508 438.931 134.523 437.29 132.695C435.65 130.867 434.876 128.055 434.97 124.258V96.3438H422.665ZM471.999 145V94.2344H505.046C509.124 94.75 512.417 95.8047 514.925 97.3984C517.433 98.9922 519.203 100.938 520.234 103.234C521.265 105.531 521.874 107.488 522.062 109.105C522.249 110.723 522.296 112.316 522.203 113.887C522.109 115.457 521.769 117.051 521.183 118.668C520.597 120.285 519.015 122.125 516.437 124.188C513.859 126.25 510.46 127.598 506.242 128.23H490.351V145H471.999ZM489.472 106.012H503.675C504.308 106.012 505.081 106.387 505.995 107.137C506.91 107.863 507.449 109.387 507.613 111.707C507.519 114.121 507.027 115.633 506.136 116.242C505.269 116.852 504.46 117.156 503.71 117.156H489.472V106.012ZM474.109 142.891H488.242V126.121H506.242C510.226 125.301 513.273 124.012 515.382 122.254C517.492 120.496 518.898 118.445 519.601 116.102C520.304 113.758 520.456 111.543 520.058 109.457C519.66 107.371 519.097 105.555 518.37 104.008C517.644 102.461 516.214 100.914 514.081 99.3672C511.949 97.8203 508.937 96.8125 505.046 96.3438H474.109V142.891ZM491.652 108.051V115.223H502.515C503.078 115.223 503.699 115.035 504.378 114.66C505.081 114.262 505.456 113.266 505.503 111.672C505.386 110.219 504.964 109.258 504.238 108.789C503.535 108.297 502.949 108.051 502.48 108.051H491.652ZM578.146 119.898C578.052 114.789 576.927 110.441 574.771 106.855C572.638 103.27 569.533 100.551 565.455 98.6992C561.4 96.8477 556.572 95.9219 550.97 95.9219C546.751 95.9219 542.978 96.4492 539.65 97.5039C536.322 98.5586 533.509 100.094 531.212 102.109C528.915 104.125 527.169 106.621 525.974 109.598C524.802 112.551 524.169 115.973 524.076 119.863C524.169 125.02 525.247 129.379 527.31 132.941C529.396 136.504 532.455 139.199 536.486 141.027C540.517 142.855 545.345 143.77 550.97 143.77C556.595 143.77 561.435 142.867 565.49 141.062C569.544 139.234 572.638 136.527 574.771 132.941C576.927 129.332 578.052 124.984 578.146 119.898ZM580.255 119.898C580.255 125.453 579.095 130.188 576.775 134.102C574.455 138.016 571.091 140.957 566.685 142.926C562.302 144.895 557.064 145.879 550.97 145.879C544.876 145.879 539.638 144.895 535.255 142.926C530.896 140.934 527.591 138.004 525.341 134.137C523.091 130.246 521.966 125.5 521.966 119.898C521.966 115.656 522.611 111.93 523.9 108.719C525.189 105.484 527.076 102.766 529.56 100.562C532.044 98.3594 535.091 96.6953 538.701 95.5703C542.31 94.4219 546.4 93.8477 550.97 93.8477C557.04 93.8477 562.279 94.8555 566.685 96.8711C571.091 98.8633 574.455 101.816 576.775 105.73C579.095 109.621 580.255 114.344 580.255 119.898ZM538.701 119.969C538.701 111.062 542.685 106.609 550.654 106.609C555.716 106.609 559.033 107.945 560.603 110.617C562.173 113.266 563.052 116.383 563.24 119.969C563.052 122.477 562.736 124.633 562.29 126.438C561.845 128.219 560.708 129.812 558.88 131.219C557.076 132.602 554.333 133.293 550.654 133.293C545.919 133.293 542.744 131.969 541.126 129.32C539.509 126.648 538.701 123.531 538.701 119.969ZM540.986 120.074C540.986 123.051 541.642 125.652 542.955 127.879C544.267 130.082 546.88 131.184 550.794 131.184C553.794 131.184 556.044 130.598 557.544 129.426C559.044 128.254 559.982 126.93 560.357 125.453C560.732 123.977 560.978 122.184 561.095 120.074C560.978 117.098 560.263 114.508 558.951 112.305C557.662 110.102 554.943 109 550.794 109C544.255 109 540.986 112.691 540.986 120.074ZM613.955 145V94.2344H643.908C647.962 94.2344 651.548 94.7383 654.666 95.7461C657.806 96.7539 660.42 98.207 662.505 100.105C664.615 102.004 666.373 104.512 667.779 107.629C669.209 110.746 669.923 114.742 669.923 119.617C669.666 124.352 668.892 128.336 667.603 131.57C666.314 134.805 664.603 137.359 662.47 139.234C660.337 141.109 657.724 142.562 654.63 143.594C651.56 144.625 647.705 145.094 643.064 145H613.955ZM629.916 105.836H640.533C642.994 105.836 644.986 106.328 646.509 107.312C648.033 108.273 649.275 109.621 650.236 111.355C651.22 113.09 651.759 115.773 651.853 119.406C651.572 123.367 650.962 126.121 650.025 127.668C649.111 129.191 647.916 130.445 646.439 131.43C644.962 132.414 643.017 132.906 640.603 132.906H629.916V105.836ZM616.064 142.891H643.064C648.689 142.75 652.709 142.199 655.123 141.238C657.537 140.277 659.541 139.059 661.134 137.582C662.728 136.105 664.205 133.926 665.564 131.043C666.923 128.16 667.673 124.352 667.814 119.617C667.627 115.07 667.287 112.129 666.795 110.793C666.302 109.457 665.67 108.027 664.896 106.504C664.123 104.98 662.916 103.422 661.275 101.828C659.634 100.234 657.349 98.8984 654.42 97.8203C651.49 96.7422 647.986 96.25 643.908 96.3438H616.064V142.891ZM632.025 107.945L632.06 130.797H640.603C643.017 130.727 644.787 130.246 645.912 129.355C647.037 128.465 647.88 127.504 648.443 126.473C649.029 125.441 649.462 123.086 649.744 119.406C649.533 116.312 649.111 114.109 648.478 112.797C647.845 111.461 646.943 110.336 645.771 109.422C644.623 108.484 642.877 107.992 640.533 107.945H632.025ZM671.304 145V94.2344H714.828V109.352H687.828V115.188H705.265V124.047H687.828V129.883H717.008V145H671.304ZM673.414 96.3438V142.891H714.898V131.992H685.718V122.008H703.156V117.297H685.718V107.242H712.718V96.3438H673.414ZM766.316 105.836H776.933C779.394 105.836 781.387 106.328 782.91 107.312C784.433 108.273 785.676 109.621 786.637 111.355C787.621 113.09 788.16 115.773 788.254 119.406C787.973 123.367 787.363 126.121 786.426 127.668C785.512 129.191 784.316 130.445 782.84 131.43C781.363 132.414 779.418 132.906 777.004 132.906H766.316V105.836ZM750.355 142.891H779.465C785.09 142.75 789.109 142.199 791.523 141.238C793.937 140.277 795.941 139.059 797.535 137.582C799.129 136.105 800.605 133.926 801.965 131.043C803.324 128.16 804.074 124.352 804.215 119.617C804.027 115.07 803.687 112.129 803.195 110.793C802.703 109.457 802.07 108.027 801.297 106.504C800.523 104.98 799.316 103.422 797.676 101.828C796.035 100.234 793.75 98.8984 790.82 97.8203C787.891 96.7422 784.387 96.25 780.308 96.3438H750.355V94.2344H780.308C784.363 94.2344 787.949 94.7383 791.066 95.7461C794.207 96.7539 796.82 98.207 798.906 100.105C801.016 102.004 802.773 104.512 804.18 107.629C805.609 110.746 806.324 114.742 806.324 119.617C806.066 124.352 805.293 128.336 804.004 131.57C802.715 134.805 801.004 137.359 798.871 139.234C796.738 141.109 794.125 142.562 791.031 143.594C787.961 144.625 784.105 145.094 779.465 145H750.355V142.891ZM768.426 107.945L768.461 130.797H777.004C779.418 130.727 781.187 130.246 782.312 129.355C783.437 128.465 784.281 127.504 784.844 126.473C785.43 125.441 785.863 123.086 786.144 119.406C785.933 116.312 785.512 114.109 784.879 112.797C784.246 111.461 783.344 110.336 782.172 109.422C781.023 108.484 779.277 107.992 776.933 107.945H768.426ZM750.355 131.992V107.242H752.465V131.992H750.355ZM807.705 94.2344H824.228V145H807.705V94.2344ZM809.814 96.3438V142.891H822.119V96.3438H809.814ZM842.52 94.2344L854.051 133.223L865.723 94.2344H886.078L867.973 145H841.008L823.148 94.2344H842.52ZM842.344 142.891H866.707L883.406 96.3438H867.234L855.668 135.332H852.609L840.867 96.3438H826.207L842.344 142.891ZM901.24 94.2344V124.258C901.1 127.68 901.756 130.059 903.209 131.395C904.662 132.73 906.936 133.445 910.029 133.539C912.514 133.492 914.588 132.766 916.252 131.359C917.916 129.953 918.701 127.586 918.607 124.258V94.2344H935.131V124.012C935.061 128.23 934.357 131.605 933.022 134.137C931.709 136.645 930.033 138.742 927.994 140.43C925.979 142.117 923.436 143.43 920.365 144.367C917.318 145.305 913.92 145.82 910.17 145.914C907.053 145.844 903.877 145.422 900.643 144.648C897.432 143.852 894.619 142.609 892.205 140.922C889.815 139.234 887.963 137.066 886.65 134.418C885.361 131.77 884.717 128.312 884.717 124.047V94.2344H901.24ZM886.826 96.3438V124.047C887.061 128.219 887.705 131.348 888.76 133.434C889.815 135.52 891.408 137.359 893.541 138.953C895.674 140.547 898.24 141.73 901.24 142.504C904.24 143.277 907.217 143.711 910.17 143.805C913.686 143.664 916.897 143.137 919.803 142.223C922.709 141.309 925.041 140.09 926.799 138.566C928.557 137.043 930.01 135.238 931.158 133.152C932.307 131.066 932.928 128.02 933.022 124.012V96.3438H920.717V124.258C920.857 127.82 920.084 130.527 918.397 132.379C916.709 134.23 913.92 135.32 910.029 135.648C905.951 135.508 903.092 134.523 901.451 132.695C899.811 130.867 899.037 128.055 899.131 124.258V96.3438H886.826ZM936.16 145V94.2344H952.684V129.883H980.176V145H936.16ZM938.27 96.3438V142.891H978.067V131.992H950.574V96.3438H938.27ZM1029.16 107.242V96.3438H1008.77C1004.92 96.3906 1001.41 96.8477 998.221 97.7148C995.033 98.582 992.209 99.9766 989.748 101.898C987.287 103.82 985.33 106.188 983.877 109C982.424 111.812 981.651 115.105 981.557 118.879C981.51 124.199 982.705 128.641 985.143 132.203C987.58 135.766 990.862 138.414 994.987 140.148C999.112 141.883 1003.71 142.797 1008.77 142.891H1029.16V121.727H1017.49V131.992H1015.38C1012.19 132.039 1009.66 131.957 1007.78 131.746C1005.91 131.535 1004.06 131.184 1002.23 130.691C1000.4 130.199 998.865 129.109 997.623 127.422C996.381 125.734 995.655 123.18 995.444 119.758C995.701 115.82 996.498 113.184 997.834 111.848C999.17 110.512 1000.6 109.539 1002.12 108.93C1003.65 108.32 1005.33 107.91 1007.19 107.699C1009.06 107.465 1011.79 107.312 1015.38 107.242H1029.16ZM1031.27 94.2344V109.352H1015.38C1011.81 109.352 1009.18 109.457 1007.47 109.668C1005.76 109.879 1004.23 110.23 1002.9 110.723C1001.56 111.215 1000.38 112.07 999.346 113.289C998.315 114.508 997.717 116.664 997.553 119.758C997.67 122.758 998.268 124.902 999.346 126.191C1000.42 127.48 1001.74 128.336 1003.28 128.758C1004.83 129.18 1006.42 129.473 1008.06 129.637C1009.71 129.801 1012.14 129.883 1015.38 129.883V119.617H1031.27V145H1008.77C1003.26 145 998.28 144.027 993.826 142.082C989.373 140.113 985.858 137.172 983.28 133.258C980.725 129.344 979.448 124.551 979.448 118.879C979.448 114.895 980.209 111.344 981.733 108.227C983.28 105.086 985.412 102.484 988.131 100.422C990.85 98.3359 993.967 96.7891 997.483 95.7812C1001.02 94.75 1004.78 94.2344 1008.77 94.2344H1031.27ZM1030.19 145L1046.89 94.2344H1072.09L1089.07 145H1069.88L1066.68 135.859H1051.6L1048.4 145H1030.19ZM1059.54 104.746L1066.75 125.594H1051.77L1059.54 104.746ZM1033.14 142.891H1046.99L1050.26 133.75H1068.37L1071.67 142.891H1086.19L1070.72 96.3438H1048.64L1033.14 142.891ZM1055.08 123.484H1063.45L1059.58 112.164L1055.08 123.484ZM1112.36 144.859C1109.01 144.953 1105.1 144.027 1100.65 142.082C1096.2 140.113 1092.68 137.172 1090.1 133.258C1087.55 129.344 1086.27 124.551 1086.27 118.879C1086.27 114.895 1087.03 111.344 1088.56 108.227C1090.1 105.086 1092.24 102.484 1094.96 100.422C1097.67 98.3359 1100.79 96.7891 1104.31 95.7812C1107.85 94.75 1111.61 94.2344 1115.59 94.2344H1129.51H1138.09V109.352H1122.2C1118.64 109.352 1116 109.457 1114.29 109.668C1112.58 109.879 1111.06 110.23 1109.72 110.723C1108.39 111.215 1107.2 112.07 1106.17 113.289C1105.14 114.508 1104.54 116.664 1104.38 119.758C1104.49 122.758 1105.09 124.902 1106.17 126.191C1107.25 127.48 1108.56 128.336 1110.11 128.758C1111.65 129.18 1113.25 129.473 1114.89 129.637C1116.53 129.801 1118.97 129.883 1122.2 129.883H1138.09V145H1119.6V148.938C1122.11 149.406 1123.97 150.203 1125.19 151.328C1126.41 152.453 1127.02 153.812 1127.02 155.406C1127.02 157.562 1125.82 159.438 1123.43 161.031C1121.06 162.648 1118.01 163.457 1114.26 163.457C1112.78 163.457 1110.92 163.363 1108.67 163.176L1109.19 160.117C1110.18 160.398 1111.35 160.562 1112.71 160.609C1115.05 160.609 1116.64 160.246 1117.46 159.52C1118.3 158.793 1118.72 157.797 1118.72 156.531C1118.72 155.641 1118.26 154.867 1117.35 154.211C1116.44 153.555 1115.3 153.227 1113.94 153.227C1113.54 153.227 1113.03 153.262 1112.39 153.332L1112.36 144.859ZM1135.98 96.3438H1115.59C1111.75 96.3906 1108.23 96.8477 1105.05 97.7148C1101.86 98.582 1099.03 99.9766 1096.57 101.898C1094.11 103.82 1092.15 106.188 1090.7 109C1089.25 111.812 1088.47 115.105 1088.38 118.879C1088.33 124.199 1089.53 128.641 1091.97 132.203C1094.4 135.766 1097.69 138.414 1101.81 140.148C1105.94 141.883 1110.15 142.773 1114.47 142.82V150.836C1115.5 150.93 1116.78 151.445 1118.3 152.383C1119.82 153.32 1120.65 154.703 1120.8 156.531C1120.84 157.891 1120.57 158.945 1119.99 159.695C1119.4 160.445 1117.84 161.078 1115.31 161.594C1117.94 161.312 1119.88 160.797 1121.15 160.047C1122.41 159.297 1123.31 158.594 1123.85 157.938C1124.39 157.281 1124.71 156.438 1124.8 155.406C1124.62 153.859 1123.85 152.711 1122.52 151.961C1121.18 151.211 1119.46 150.625 1117.35 150.203V142.891H1125.79H1135.98V131.992H1122.2C1119.01 132.039 1116.48 131.957 1114.61 131.746C1112.73 131.535 1110.88 131.184 1109.05 130.691C1107.22 130.199 1105.69 129.109 1104.45 127.422C1103.21 125.734 1102.48 123.18 1102.27 119.758C1102.53 115.82 1103.32 113.184 1104.66 111.848C1105.99 110.512 1107.42 109.539 1108.95 108.93C1110.47 108.32 1112.16 107.91 1114.01 107.699C1115.89 107.465 1118.62 107.312 1122.2 107.242H1135.98V96.3438ZM1137.01 145L1153.71 94.2344H1178.92L1195.9 145H1176.7L1173.5 135.859H1158.42L1155.22 145H1137.01ZM1166.37 104.746L1173.57 125.594H1158.6L1166.37 104.746ZM1139.97 142.891H1153.82L1157.09 133.75H1175.19L1178.5 142.891H1193.02L1177.55 96.3438H1155.47L1139.97 142.891ZM1161.9 123.484H1170.27L1166.4 112.164L1161.9 123.484ZM1158.25 84.3906C1159.75 84.4844 1161.16 84.7188 1162.5 85.0938C1163.84 85.4688 1165.63 86.8516 1167.88 89.2422C1170.13 91.6328 1172.59 91.4688 1175.26 88.75C1172.45 89.7344 1170.45 89.9102 1169.25 89.2773C1168.06 88.6445 1166.52 87.332 1164.65 85.3398C1162.77 83.3477 1160.64 83.0312 1158.25 84.3906ZM1179.48 87.4844C1173.86 92.9219 1169.07 93.5078 1165.14 89.2422C1161.2 84.9766 1158.23 84.8008 1156.24 88.7148L1154.13 87.0625C1157.58 80.7344 1161.35 79.8086 1165.45 84.2852C1169.56 88.7617 1173.34 89.3594 1176.81 86.0781L1179.48 87.4844ZM1249.28 119.898C1249.18 114.789 1248.06 110.441 1245.9 106.855C1243.77 103.27 1240.66 100.551 1236.58 98.6992C1232.53 96.8477 1227.7 95.9219 1222.1 95.9219C1217.88 95.9219 1214.11 96.4492 1210.78 97.5039C1207.45 98.5586 1204.64 100.094 1202.34 102.109C1200.05 104.125 1198.3 106.621 1197.1 109.598C1195.93 112.551 1195.3 115.973 1195.21 119.863C1195.3 125.02 1196.38 129.379 1198.44 132.941C1200.53 136.504 1203.58 139.199 1207.62 141.027C1211.65 142.855 1216.48 143.77 1222.1 143.77C1227.73 143.77 1232.57 142.867 1236.62 141.062C1240.67 139.234 1243.77 136.527 1245.9 132.941C1248.06 129.332 1249.18 124.984 1249.28 119.898ZM1251.39 119.898C1251.39 125.453 1250.23 130.188 1247.9 134.102C1245.58 138.016 1242.22 140.957 1237.82 142.926C1233.43 144.895 1228.19 145.879 1222.1 145.879C1216.01 145.879 1210.77 144.895 1206.39 142.926C1202.03 140.934 1198.72 138.004 1196.47 134.137C1194.22 130.246 1193.1 125.5 1193.1 119.898C1193.1 115.656 1193.74 111.93 1195.03 108.719C1196.32 105.484 1198.21 102.766 1200.69 100.562C1203.17 98.3594 1206.22 96.6953 1209.83 95.5703C1213.44 94.4219 1217.53 93.8477 1222.1 93.8477C1228.17 93.8477 1233.41 94.8555 1237.82 96.8711C1242.22 98.8633 1245.58 101.816 1247.9 105.73C1250.23 109.621 1251.39 114.344 1251.39 119.898ZM1209.83 119.969C1209.83 111.062 1213.82 106.609 1221.78 106.609C1226.85 106.609 1230.16 107.945 1231.73 110.617C1233.3 113.266 1234.18 116.383 1234.37 119.969C1234.18 122.477 1233.87 124.633 1233.42 126.438C1232.98 128.219 1231.84 129.812 1230.01 131.219C1228.21 132.602 1225.46 133.293 1221.78 133.293C1217.05 133.293 1213.87 131.969 1212.26 129.32C1210.64 126.648 1209.83 123.531 1209.83 119.969ZM1212.12 120.074C1212.12 123.051 1212.77 125.652 1214.08 127.879C1215.4 130.082 1218.01 131.184 1221.92 131.184C1224.92 131.184 1227.17 130.598 1228.67 129.426C1230.17 128.254 1231.11 126.93 1231.49 125.453C1231.86 123.977 1232.11 122.184 1232.23 120.074C1232.11 117.098 1231.39 114.508 1230.08 112.305C1228.79 110.102 1226.07 109 1221.92 109C1215.39 109 1212.12 112.691 1212.12 120.074ZM1285.08 145V94.2344H1315.04C1319.09 94.2344 1322.68 94.7383 1325.8 95.7461C1328.94 96.7539 1331.55 98.207 1333.64 100.105C1335.74 102.004 1337.5 104.512 1338.91 107.629C1340.34 110.746 1341.05 114.742 1341.05 119.617C1340.8 124.352 1340.02 128.336 1338.73 131.57C1337.44 134.805 1335.73 137.359 1333.6 139.234C1331.47 141.109 1328.85 142.562 1325.76 143.594C1322.69 144.625 1318.83 145.094 1314.19 145H1285.08ZM1301.05 105.836H1311.66C1314.12 105.836 1316.12 106.328 1317.64 107.312C1319.16 108.273 1320.41 109.621 1321.37 111.355C1322.35 113.09 1322.89 115.773 1322.98 119.406C1322.7 123.367 1322.09 126.121 1321.16 127.668C1320.24 129.191 1319.05 130.445 1317.57 131.43C1316.09 132.414 1314.15 132.906 1311.73 132.906H1301.05V105.836ZM1287.19 142.891H1314.19C1319.82 142.75 1323.84 142.199 1326.25 141.238C1328.67 140.277 1330.67 139.059 1332.26 137.582C1333.86 136.105 1335.33 133.926 1336.69 131.043C1338.05 128.16 1338.8 124.352 1338.94 119.617C1338.76 115.07 1338.42 112.129 1337.92 110.793C1337.43 109.457 1336.8 108.027 1336.03 106.504C1335.25 104.98 1334.05 103.422 1332.41 101.828C1330.76 100.234 1328.48 98.8984 1325.55 97.8203C1322.62 96.7422 1319.12 96.25 1315.04 96.3438H1287.19V142.891ZM1303.16 107.945L1303.19 130.797H1311.73C1314.15 130.727 1315.92 130.246 1317.04 129.355C1318.17 128.465 1319.01 127.504 1319.57 126.473C1320.16 125.441 1320.59 123.086 1320.87 119.406C1320.66 116.312 1320.24 114.109 1319.61 112.797C1318.98 111.461 1318.07 110.336 1316.9 109.422C1315.75 108.484 1314.01 107.992 1311.66 107.945H1303.16ZM1340.32 145L1357.02 94.2344H1382.23L1399.21 145H1380.02L1376.82 135.859H1361.74L1358.54 145H1340.32ZM1369.68 104.746L1376.89 125.594H1361.91L1369.68 104.746ZM1343.28 142.891H1357.13L1360.4 133.75H1378.5L1381.81 142.891H1396.33L1380.86 96.3438H1358.78L1343.28 142.891ZM1365.22 123.484H1373.58L1369.72 112.164L1365.22 123.484ZM266.273 257.891H279.281L282.516 248.75H300.375L303.609 257.891H316.617V260H302.203L298.969 250.859H283.922L280.688 260H266.273V257.891ZM316.195 244.883H316.617V246.992H314.508L303.047 211.344H280.898L268.453 246.992H266.273V244.883H266.695L279.141 209.234H304.805L316.195 244.883ZM291.832 219.746L299.039 240.594H284.062L291.832 219.746ZM287.367 238.484H295.734L291.867 227.164L287.367 238.484ZM355.44 209.234V224.352H345.209C339.186 224.164 338.295 225.828 342.537 229.344C350.131 236 353.857 242.469 353.717 248.75C353.576 255.031 349.85 258.781 342.537 260H315.537V244.883H326.225C332.857 245.07 333.701 243.219 328.756 239.328C320.6 231.828 317.131 224.938 318.35 218.656C319.568 212.375 323.412 209.234 329.881 209.234H355.44ZM317.647 246.992V257.891H342.537C348.725 256.578 351.725 253.203 351.537 247.766C351.35 242.328 347.225 236.188 339.162 229.344C335.412 224.469 337.428 222.102 345.209 222.242H353.33V211.344H329.881C325.006 211.438 321.936 214.039 320.67 219.148C319.404 224.258 322.756 230.516 330.725 237.922C336.631 243.734 335.131 246.758 326.225 246.992H317.647ZM398.902 209.234V224.352H384.91V260H368.387V224.352H354.395V209.234H398.902ZM356.504 211.344V222.242H370.496V257.891H382.801V222.242H396.793V211.344H356.504ZM399.932 260V209.234H432.979C437.057 209.609 440.326 210.617 442.787 212.258C445.248 213.898 446.924 215.48 447.815 217.004C448.705 218.527 449.338 220.391 449.713 222.594C450.088 224.797 449.842 227.199 448.975 229.801C448.108 232.402 446.619 234.523 444.51 236.164C442.401 237.805 439.377 239.094 435.44 240.031L439.237 244.883H452.315V260H434.385L418.283 243.23V260H399.932ZM402.041 257.891H416.174V241.121H419.584L435.615 257.891H450.205V246.992H438.006L433.33 241.262V238.309C438.158 237.324 441.451 236.094 443.209 234.617C444.99 233.141 446.244 231.336 446.971 229.203C447.721 227.07 447.955 225.031 447.674 223.086C447.416 221.141 446.912 219.535 446.162 218.27C445.436 216.98 443.959 215.586 441.733 214.086C439.506 212.586 436.588 211.672 432.979 211.344H402.041V257.891ZM417.405 221.012H431.608C432.24 221.012 433.014 221.387 433.928 222.137C434.842 222.863 435.381 224.387 435.545 226.707C435.451 229.121 434.959 230.633 434.069 231.242C433.201 231.852 432.393 232.156 431.643 232.156H417.405V221.012ZM419.584 223.051V230.223H430.447C431.01 230.223 431.631 230.035 432.311 229.66C433.014 229.262 433.389 228.266 433.436 226.672C433.319 225.219 432.897 224.258 432.17 223.789C431.467 223.297 430.881 223.051 430.412 223.051H419.584ZM507.766 234.898C507.672 229.789 506.547 225.441 504.391 221.855C502.258 218.27 499.153 215.551 495.075 213.699C491.02 211.848 486.192 210.922 480.59 210.922C476.371 210.922 472.598 211.449 469.27 212.504C465.942 213.559 463.129 215.094 460.832 217.109C458.535 219.125 456.789 221.621 455.594 224.598C454.422 227.551 453.789 230.973 453.696 234.863C453.789 240.02 454.867 244.379 456.93 247.941C459.016 251.504 462.075 254.199 466.106 256.027C470.137 257.855 474.965 258.77 480.59 258.77C486.215 258.77 491.055 257.867 495.11 256.062C499.164 254.234 502.258 251.527 504.391 247.941C506.547 244.332 507.672 239.984 507.766 234.898ZM509.875 234.898C509.875 240.453 508.715 245.188 506.395 249.102C504.075 253.016 500.711 255.957 496.305 257.926C491.922 259.895 486.684 260.879 480.59 260.879C474.496 260.879 469.258 259.895 464.875 257.926C460.516 255.934 457.211 253.004 454.961 249.137C452.711 245.246 451.586 240.5 451.586 234.898C451.586 230.656 452.231 226.93 453.52 223.719C454.809 220.484 456.696 217.766 459.18 215.562C461.664 213.359 464.711 211.695 468.321 210.57C471.93 209.422 476.02 208.848 480.59 208.848C486.66 208.848 491.899 209.855 496.305 211.871C500.711 213.863 504.075 216.816 506.395 220.73C508.715 224.621 509.875 229.344 509.875 234.898ZM468.321 234.969C468.321 226.062 472.305 221.609 480.274 221.609C485.336 221.609 488.653 222.945 490.223 225.617C491.793 228.266 492.672 231.383 492.86 234.969C492.672 237.477 492.356 239.633 491.91 241.438C491.465 243.219 490.328 244.812 488.5 246.219C486.696 247.602 483.953 248.293 480.274 248.293C475.539 248.293 472.364 246.969 470.746 244.32C469.129 241.648 468.321 238.531 468.321 234.969ZM470.606 235.074C470.606 238.051 471.262 240.652 472.575 242.879C473.887 245.082 476.5 246.184 480.414 246.184C483.414 246.184 485.664 245.598 487.164 244.426C488.664 243.254 489.602 241.93 489.977 240.453C490.352 238.977 490.598 237.184 490.715 235.074C490.598 232.098 489.883 229.508 488.571 227.305C487.282 225.102 484.563 224 480.414 224C473.875 224 470.606 227.691 470.606 235.074ZM511.256 260V209.234H527.78L542.897 228.219V209.234H559.42V260H542.897L527.78 241.016V260H511.256ZM513.366 211.344V257.891H525.67V238.906H529.01L544.127 257.891H557.311V211.344H545.006V230.258H541.666L526.901 211.344H513.366ZM614.872 234.898C614.778 229.789 613.653 225.441 611.497 221.855C609.364 218.27 606.258 215.551 602.18 213.699C598.125 211.848 593.297 210.922 587.696 210.922C583.477 210.922 579.704 211.449 576.375 212.504C573.047 213.559 570.235 215.094 567.938 217.109C565.641 219.125 563.895 221.621 562.7 224.598C561.528 227.551 560.895 230.973 560.801 234.863C560.895 240.02 561.973 244.379 564.036 247.941C566.122 251.504 569.18 254.199 573.211 256.027C577.243 257.855 582.071 258.77 587.696 258.77C593.321 258.77 598.161 257.867 602.215 256.062C606.27 254.234 609.364 251.527 611.497 247.941C613.653 244.332 614.778 239.984 614.872 234.898ZM616.981 234.898C616.981 240.453 615.821 245.188 613.5 249.102C611.18 253.016 607.817 255.957 603.411 257.926C599.028 259.895 593.79 260.879 587.696 260.879C581.602 260.879 576.364 259.895 571.981 257.926C567.622 255.934 564.317 253.004 562.067 249.137C559.817 245.246 558.692 240.5 558.692 234.898C558.692 230.656 559.336 226.93 560.625 223.719C561.915 220.484 563.801 217.766 566.286 215.562C568.77 213.359 571.817 211.695 575.426 210.57C579.036 209.422 583.125 208.848 587.696 208.848C593.766 208.848 599.004 209.855 603.411 211.871C607.817 213.863 611.18 216.816 613.5 220.73C615.821 224.621 616.981 229.344 616.981 234.898ZM575.426 234.969C575.426 226.062 579.411 221.609 587.379 221.609C592.442 221.609 595.758 222.945 597.329 225.617C598.899 228.266 599.778 231.383 599.965 234.969C599.778 237.477 599.461 239.633 599.016 241.438C598.571 243.219 597.434 244.812 595.606 246.219C593.801 247.602 591.059 248.293 587.379 248.293C582.645 248.293 579.469 246.969 577.852 244.32C576.235 241.648 575.426 238.531 575.426 234.969ZM577.711 235.074C577.711 238.051 578.368 240.652 579.68 242.879C580.993 245.082 583.606 246.184 587.52 246.184C590.52 246.184 592.77 245.598 594.27 244.426C595.77 243.254 596.707 241.93 597.082 240.453C597.457 238.977 597.704 237.184 597.821 235.074C597.704 232.098 596.989 229.508 595.676 227.305C594.387 225.102 591.668 224 587.52 224C580.981 224 577.711 227.691 577.711 235.074ZM618.362 260V209.234H634.885L645.995 230.328L657.034 209.234H673.557V260H657.034V238.906L646.417 260H645.503L634.885 238.906V260H618.362ZM620.471 211.344V257.891H632.776V236.586H636.01L645.854 257.047L655.874 236.797H659.143V257.891H671.448V211.344H658.264L646.628 233.281H645.362L633.655 211.344H620.471ZM674.587 209.234H691.11V260H674.587V209.234ZM676.696 211.344V257.891H689.001V211.344H676.696ZM690.03 260L706.729 209.234H731.936L748.917 260H729.721L726.522 250.859H711.44L708.241 260H690.03ZM719.385 219.746L726.592 240.594H711.616L719.385 219.746ZM692.983 257.891H706.835L710.104 248.75H728.21L731.514 257.891H746.034L730.565 211.344H708.487L692.983 257.891ZM714.921 238.484H723.288L719.421 227.164L714.921 238.484ZM780.19 260V209.234H810.143C814.198 209.234 817.784 209.738 820.901 210.746C824.042 211.754 826.655 213.207 828.741 215.105C830.85 217.004 832.608 219.512 834.015 222.629C835.444 225.746 836.159 229.742 836.159 234.617C835.901 239.352 835.128 243.336 833.839 246.57C832.55 249.805 830.839 252.359 828.706 254.234C826.573 256.109 823.96 257.562 820.866 258.594C817.796 259.625 813.94 260.094 809.3 260H780.19ZM796.151 220.836H806.768C809.229 220.836 811.222 221.328 812.745 222.312C814.268 223.273 815.511 224.621 816.472 226.355C817.456 228.09 817.995 230.773 818.089 234.406C817.807 238.367 817.198 241.121 816.261 242.668C815.347 244.191 814.151 245.445 812.675 246.43C811.198 247.414 809.253 247.906 806.839 247.906H796.151V220.836ZM782.3 257.891H809.3C814.925 257.75 818.944 257.199 821.358 256.238C823.772 255.277 825.776 254.059 827.37 252.582C828.964 251.105 830.44 248.926 831.8 246.043C833.159 243.16 833.909 239.352 834.05 234.617C833.862 230.07 833.522 227.129 833.03 225.793C832.538 224.457 831.905 223.027 831.132 221.504C830.358 219.98 829.151 218.422 827.511 216.828C825.87 215.234 823.585 213.898 820.655 212.82C817.725 211.742 814.222 211.25 810.143 211.344H782.3V257.891ZM798.261 222.945L798.296 245.797H806.839C809.253 245.727 811.022 245.246 812.147 244.355C813.272 243.465 814.116 242.504 814.679 241.473C815.265 240.441 815.698 238.086 815.979 234.406C815.768 231.312 815.347 229.109 814.714 227.797C814.081 226.461 813.179 225.336 812.007 224.422C810.858 223.484 809.112 222.992 806.768 222.945H798.261ZM891.962 234.898C891.868 229.789 890.743 225.441 888.587 221.855C886.454 218.27 883.349 215.551 879.27 213.699C875.216 211.848 870.388 210.922 864.786 210.922C860.567 210.922 856.794 211.449 853.466 212.504C850.138 213.559 847.325 215.094 845.028 217.109C842.731 219.125 840.985 221.621 839.79 224.598C838.618 227.551 837.985 230.973 837.892 234.863C837.985 240.02 839.063 244.379 841.126 247.941C843.212 251.504 846.27 254.199 850.302 256.027C854.333 257.855 859.161 258.77 864.786 258.77C870.411 258.77 875.251 257.867 879.306 256.062C883.36 254.234 886.454 251.527 888.587 247.941C890.743 244.332 891.868 239.984 891.962 234.898ZM894.071 234.898C894.071 240.453 892.911 245.188 890.591 249.102C888.27 253.016 884.907 255.957 880.501 257.926C876.118 259.895 870.88 260.879 864.786 260.879C858.692 260.879 853.454 259.895 849.071 257.926C844.712 255.934 841.407 253.004 839.157 249.137C836.907 245.246 835.782 240.5 835.782 234.898C835.782 230.656 836.427 226.93 837.716 223.719C839.005 220.484 840.892 217.766 843.376 215.562C845.86 213.359 848.907 211.695 852.517 210.57C856.126 209.422 860.216 208.848 864.786 208.848C870.856 208.848 876.095 209.855 880.501 211.871C884.907 213.863 888.27 216.816 890.591 220.73C892.911 224.621 894.071 229.344 894.071 234.898ZM852.517 234.969C852.517 226.062 856.501 221.609 864.47 221.609C869.532 221.609 872.849 222.945 874.419 225.617C875.989 228.266 876.868 231.383 877.056 234.969C876.868 237.477 876.552 239.633 876.106 241.438C875.661 243.219 874.524 244.812 872.696 246.219C870.892 247.602 868.149 248.293 864.47 248.293C859.735 248.293 856.56 246.969 854.942 244.32C853.325 241.648 852.517 238.531 852.517 234.969ZM854.802 235.074C854.802 238.051 855.458 240.652 856.77 242.879C858.083 245.082 860.696 246.184 864.61 246.184C867.61 246.184 869.86 245.598 871.36 244.426C872.86 243.254 873.798 241.93 874.173 240.453C874.548 238.977 874.794 237.184 874.911 235.074C874.794 232.098 874.079 229.508 872.767 227.305C871.477 225.102 868.759 224 864.61 224C858.071 224 854.802 227.691 854.802 235.074ZM927.771 209.234H944.294V260H927.771V209.234ZM929.88 211.344V257.891H942.185V211.344H929.88ZM945.323 260V209.234H988.847V224.352H961.847V230.188H979.284V239.047H961.847V260H945.323ZM947.433 211.344V257.891H959.737V237.008H977.175V232.297H959.737V222.242H986.737V211.344H947.433ZM1027.67 209.234V224.352H1017.44C1011.42 224.164 1010.52 225.828 1014.77 229.344C1022.36 236 1026.09 242.469 1025.95 248.75C1025.81 255.031 1022.08 258.781 1014.77 260H987.767V244.883H998.454C1005.09 245.07 1005.93 243.219 1000.99 239.328C992.829 231.828 989.361 224.938 990.579 218.656C991.798 212.375 995.642 209.234 1002.11 209.234H1027.67ZM989.876 246.992V257.891H1014.77C1020.95 256.578 1023.95 253.203 1023.77 247.766C1023.58 242.328 1019.45 236.188 1011.39 229.344C1007.64 224.469 1009.66 222.102 1017.44 222.242H1025.56V211.344H1002.11C997.236 211.438 994.165 214.039 992.9 219.148C991.634 224.258 994.986 230.516 1002.95 237.922C1008.86 243.734 1007.36 246.758 998.454 246.992H989.876ZM1045.26 209.234V239.258C1045.12 242.68 1045.77 245.059 1047.23 246.395C1048.68 247.73 1050.95 248.445 1054.05 248.539C1056.53 248.492 1058.6 247.766 1060.27 246.359C1061.93 244.953 1062.72 242.586 1062.62 239.258V209.234H1079.15V239.012C1079.08 243.23 1078.37 246.605 1077.04 249.137C1075.73 251.645 1074.05 253.742 1072.01 255.43C1070 257.117 1067.45 258.43 1064.38 259.367C1061.34 260.305 1057.94 260.82 1054.19 260.914C1051.07 260.844 1047.89 260.422 1044.66 259.648C1041.45 258.852 1038.64 257.609 1036.22 255.922C1033.83 254.234 1031.98 252.066 1030.67 249.418C1029.38 246.77 1028.73 243.312 1028.73 239.047V209.234H1045.26ZM1030.84 211.344V239.047C1031.08 243.219 1031.72 246.348 1032.78 248.434C1033.83 250.52 1035.43 252.359 1037.56 253.953C1039.69 255.547 1042.26 256.73 1045.26 257.504C1048.26 258.277 1051.23 258.711 1054.19 258.805C1057.7 258.664 1060.91 258.137 1063.82 257.223C1066.73 256.309 1069.06 255.09 1070.82 253.566C1072.57 252.043 1074.03 250.238 1075.18 248.152C1076.32 246.066 1076.94 243.02 1077.04 239.012V211.344H1064.73V239.258C1064.87 242.82 1064.1 245.527 1062.41 247.379C1060.73 249.23 1057.94 250.32 1054.05 250.648C1049.97 250.508 1047.11 249.523 1045.47 247.695C1043.83 245.867 1043.05 243.055 1043.15 239.258V211.344H1030.84ZM1080.18 260V209.234H1096.7V244.883H1124.19V260H1080.18ZM1082.29 211.344V257.891H1122.08V246.992H1094.59V211.344H1082.29ZM1125.22 260V209.234H1155.18C1159.23 209.234 1162.82 209.738 1165.93 210.746C1169.07 211.754 1171.69 213.207 1173.77 215.105C1175.88 217.004 1177.64 219.512 1179.05 222.629C1180.48 225.746 1181.19 229.742 1181.19 234.617C1180.93 239.352 1180.16 243.336 1178.87 246.57C1177.58 249.805 1175.87 252.359 1173.74 254.234C1171.6 256.109 1168.99 257.562 1165.9 258.594C1162.83 259.625 1158.97 260.094 1154.33 260H1125.22ZM1141.18 220.836H1151.8C1154.26 220.836 1156.25 221.328 1157.78 222.312C1159.3 223.273 1160.54 224.621 1161.5 226.355C1162.49 228.09 1163.03 230.773 1163.12 234.406C1162.84 238.367 1162.23 241.121 1161.29 242.668C1160.38 244.191 1159.18 245.445 1157.71 246.43C1156.23 247.414 1154.28 247.906 1151.87 247.906H1141.18V220.836ZM1127.33 257.891H1154.33C1159.96 257.75 1163.98 257.199 1166.39 256.238C1168.8 255.277 1170.81 254.059 1172.4 252.582C1174 251.105 1175.47 248.926 1176.83 246.043C1178.19 243.16 1178.94 239.352 1179.08 234.617C1178.89 230.07 1178.55 227.129 1178.06 225.793C1177.57 224.457 1176.94 223.027 1176.16 221.504C1175.39 219.98 1174.18 218.422 1172.54 216.828C1170.9 215.234 1168.62 213.898 1165.69 212.82C1162.76 211.742 1159.25 211.25 1155.18 211.344H1127.33V257.891ZM1143.29 222.945L1143.33 245.797H1151.87C1154.28 245.727 1156.05 245.246 1157.18 244.355C1158.3 243.465 1159.15 242.504 1159.71 241.473C1160.3 240.441 1160.73 238.086 1161.01 234.406C1160.8 231.312 1160.38 229.109 1159.75 227.797C1159.11 226.461 1158.21 225.336 1157.04 224.422C1155.89 223.484 1154.14 222.992 1151.8 222.945H1143.29ZM1182.57 260V209.234H1226.1V224.352H1199.1V230.188H1216.53V239.047H1199.1V244.883H1228.28V260H1182.57ZM1184.68 211.344V257.891H1226.17V246.992H1196.99V237.008H1214.42V232.297H1196.99V222.242H1223.99V211.344H1184.68ZM1229.3 260V209.234H1245.83L1256.94 230.328L1267.98 209.234H1284.5V260H1267.98V238.906L1257.36 260H1256.45L1245.83 238.906V260H1229.3ZM1231.41 211.344V257.891H1243.72V236.586H1246.95L1256.8 257.047L1266.82 236.797H1270.09V257.891H1282.39V211.344H1269.21L1257.57 233.281H1256.3L1244.6 211.344H1231.41ZM1285.53 209.234H1302.05V260H1285.53V209.234ZM1287.64 211.344V257.891H1299.94V211.344H1287.64ZM1303.08 260V209.234H1319.61L1334.72 228.219V209.234H1351.25V260H1334.72L1319.61 241.016V260H1303.08ZM1305.19 211.344V257.891H1317.5V238.906H1320.84L1335.95 257.891H1349.14V211.344H1336.83V230.258H1333.49L1318.73 211.344H1305.19ZM1350.17 260L1366.87 209.234H1392.07L1409.05 260H1389.86L1386.66 250.859H1371.58L1368.38 260H1350.17ZM1379.52 219.746L1386.73 240.594H1371.75L1379.52 219.746ZM1353.12 257.891H1366.97L1370.24 248.75H1388.35L1391.65 257.891H1406.17L1390.7 211.344H1368.62L1353.12 257.891ZM1375.06 238.484H1383.42L1379.56 227.164L1375.06 238.484ZM1445.8 209.234V224.352H1435.57C1429.55 224.164 1428.66 225.828 1432.9 229.344C1440.49 236 1444.22 242.469 1444.08 248.75C1443.94 255.031 1440.21 258.781 1432.9 260H1405.9V244.883H1416.59C1423.22 245.07 1424.06 243.219 1419.12 239.328C1410.96 231.828 1407.49 224.938 1408.71 218.656C1409.93 212.375 1413.77 209.234 1420.24 209.234H1445.8ZM1408.01 246.992V257.891H1432.9C1439.09 256.578 1442.09 253.203 1441.9 247.766C1441.71 242.328 1437.59 236.188 1429.52 229.344C1425.77 224.469 1427.79 222.102 1435.57 222.242H1443.69V211.344H1420.24C1415.37 211.438 1412.3 214.039 1411.03 219.148C1409.77 224.258 1413.12 230.516 1421.09 237.922C1426.99 243.734 1425.49 246.758 1416.59 246.992H1408.01Z" fill="white"/>
</svg>
